<svg width="41" height="40" viewBox="0 0 41 40" fill="none" xmlns="http://www.w3.org/2000/svg">
<path d="M22.2135 3.33334C24.0885 3.33834 25.0401 3.34834 25.8618 3.37168L26.1851 3.38334C26.5585 3.39668 26.9268 3.41334 27.3718 3.43334C29.1451 3.51668 30.3551 3.79668 31.4168 4.20834C32.5168 4.63168 33.4435 5.20501 34.3701 6.13001C35.2176 6.96317 35.8734 7.97099 36.2918 9.08335C36.7035 10.145 36.9835 11.355 37.0668 13.13C37.0868 13.5733 37.1035 13.9417 37.1168 14.3167L37.1268 14.64C37.1518 15.46 37.1618 16.4117 37.1651 18.2867L37.1668 19.53V21.7134C37.1709 22.929 37.1581 24.1447 37.1285 25.36L37.1185 25.6834C37.1051 26.0584 37.0885 26.4267 37.0685 26.87C36.9851 28.645 36.7018 29.8534 36.2918 30.9167C35.8746 32.0296 35.2187 33.0377 34.3701 33.87C33.5367 34.7172 32.529 35.3729 31.4168 35.7917C30.3551 36.2034 29.1451 36.4834 27.3718 36.5667C26.9763 36.5853 26.5808 36.602 26.1851 36.6167L25.8618 36.6267C25.0401 36.65 24.0885 36.6617 22.2135 36.665L20.9701 36.6667H18.7885C17.5722 36.6709 16.356 36.6581 15.1401 36.6284L14.8168 36.6184C14.4212 36.6034 14.0256 36.5862 13.6301 36.5667C11.8568 36.4834 10.6468 36.2034 9.58348 35.7917C8.47126 35.374 7.46384 34.7181 6.63181 33.87C5.78356 33.0372 5.12719 32.0293 4.70848 30.9167C4.29681 29.855 4.01681 28.645 3.93348 26.87C3.91491 26.4745 3.89825 26.079 3.88348 25.6834L3.87515 25.36C3.84443 24.1447 3.83054 22.929 3.83348 21.7134V18.2867C3.82883 17.071 3.84105 15.8553 3.87015 14.64L3.88181 14.3167C3.89515 13.9417 3.91181 13.5733 3.93181 13.13C4.01515 11.355 4.29515 10.1467 4.70681 9.08335C5.12534 7.96985 5.78301 6.96172 6.63348 6.13001C7.4653 5.28247 8.47205 4.62666 9.58348 4.20834C10.6468 3.79668 11.8551 3.51668 13.6301 3.43334C14.0735 3.41334 14.4435 3.39668 14.8168 3.38334L15.1401 3.37334C16.3555 3.34373 17.5711 3.33095 18.7868 3.33501L22.2135 3.33334ZM20.5001 11.6667C18.29 11.6667 16.1704 12.5447 14.6076 14.1075C13.0448 15.6703 12.1668 17.7899 12.1668 20C12.1668 22.2102 13.0448 24.3298 14.6076 25.8926C16.1704 27.4554 18.29 28.3334 20.5001 28.3334C22.7103 28.3334 24.8299 27.4554 26.3927 25.8926C27.9555 24.3298 28.8335 22.2102 28.8335 20C28.8335 17.7899 27.9555 15.6703 26.3927 14.1075C24.8299 12.5447 22.7103 11.6667 20.5001 11.6667ZM20.5001 15C21.1568 14.9999 21.807 15.1291 22.4136 15.3803C23.0203 15.6315 23.5716 15.9997 24.0359 16.4639C24.5003 16.9281 24.8687 17.4792 25.1201 18.0858C25.3714 18.6924 25.5009 19.3426 25.501 19.9992C25.5011 20.6558 25.3719 21.306 25.1207 21.9127C24.8695 22.5193 24.5013 23.0706 24.0371 23.535C23.5729 23.9993 23.0217 24.3677 22.4152 24.6191C21.8086 24.8705 21.1584 24.9999 20.5018 25C19.1757 25 17.904 24.4732 16.9663 23.5356C16.0286 22.5979 15.5018 21.3261 15.5018 20C15.5018 18.6739 16.0286 17.4022 16.9663 16.4645C17.904 15.5268 19.1757 15 20.5018 15M29.2518 9.16668C28.6993 9.16668 28.1694 9.38617 27.7787 9.77687C27.388 10.1676 27.1685 10.6975 27.1685 11.25C27.1685 11.8025 27.388 12.3325 27.7787 12.7232C28.1694 13.1139 28.6993 13.3333 29.2518 13.3333C29.8043 13.3333 30.3342 13.1139 30.7249 12.7232C31.1157 12.3325 31.3351 11.8025 31.3351 11.25C31.3351 10.6975 31.1157 10.1676 30.7249 9.77687C30.3342 9.38617 29.8043 9.16668 29.2518 9.16668Z" fill="#1A1A1A"/>
</svg>
